<svg width="304" height="304" viewBox="0 0 304 304" fill="none" xmlns="http://www.w3.org/2000/svg">
<path d="M152 303.62C235.594 303.62 303.36 235.854 303.36 152.26C303.36 68.6662 235.594 0.900024 152 0.900024C68.4062 0.900024 0.640015 68.6662 0.640015 152.26C0.640015 235.854 68.4062 303.62 152 303.62Z" fill="white"/>
<path d="M203.84 294.5L191.97 267.71H107.7L97.01 293.27C97.18 293.36 96.66 293.16 97.18 293.36C114.17 299.98 132.65 303.61 151.99 303.61C170.17 303.61 187.59 300.4 203.74 294.53L203.83 294.5H203.84Z" fill="#CD4327"/>
<path d="M152 0.900024C68.41 0.900024 0.640015 68.66 0.640015 152.26C0.640015 194.99 18.35 233.58 46.83 261.1C46.97 261.23 46.83 261.1 46.91 261.13L148.2 46.72C150.01 43.1 154.36 43.1 156.16 46.72L257.13 261.08C285.62 233.56 303.35 194.99 303.35 152.26C303.35 68.67 235.59 0.900024 151.99 0.900024H152Z" fill="#CD4327"/>
<path d="M149.3 168.97L128.68 217.79H170.28L149.3 168.97Z" fill="#CD4327"/>
<path d="M151.73 96.28L68.03 278.21C69.84 279.42 71.68 280.6 73.55 281.74L89.87 246.02H213.93L230.39 281.77C232.27 280.63 234.12 279.44 235.95 278.22L151.72 96.29L151.73 96.28ZM93.15 239.5L151.73 111.83L210.68 239.5H93.14H93.15Z" fill="#F3CE13"/>
</svg>
