<svg width="277" height="25" viewBox="0 0 277 25" fill="none" xmlns="http://www.w3.org/2000/svg">
<path d="M2.79517 24.6476H0L11.5353 0.40257C11.7161 0.0503929 12.1402 0.0503929 12.314 0.40257L23.8146 24.6476H20.8456L11.7786 5.21566L2.79517 24.6476ZM15.8115 21.8716H7.56504L6.39691 24.6476H3.49744L5.7294 19.7654H17.8627L20.1294 24.6476H17.0491L15.8115 21.8716ZM11.7786 6.72795L17.5498 19.1301H6.04925L11.7786 6.72795ZM9.62317 17.024H13.6908L11.6396 12.2799L9.62317 17.024Z" fill="#CD4327"/>
<path d="M39.772 3.14428H20.5952V0.754995H39.772V3.14428ZM26.9643 6.13433H20.5952V3.77958H29.8638V24.6478H26.9643V6.13433ZM30.5035 24.6478V3.77958H39.772V6.13433H33.4029V24.6547H30.5035V24.6478Z" fill="#CD4327"/>
<path d="M40.3145 12.7014C40.3145 5.49903 46.2942 0.47187 53.2265 0.47187C60.1588 0.47187 66.1385 5.49903 66.1385 12.7014C66.1385 19.9038 60.1588 24.9655 53.2265 24.9655C46.2942 24.9655 40.3145 19.9038 40.3145 12.7014ZM63.1695 12.7014C63.1695 7.04585 58.8863 2.93021 53.2265 2.93021C47.5666 2.93021 43.2835 7.03895 43.2835 12.7014C43.2835 18.3639 47.5666 22.5071 53.2265 22.5071C58.8863 22.5071 63.1695 18.3639 63.1695 12.7014ZM43.9231 12.7014C43.9231 7.39803 47.9212 3.56551 53.2265 3.56551C58.5317 3.56551 62.5298 7.39803 62.5298 12.7014C62.5298 18.0048 58.5317 21.8718 53.2265 21.8718C47.9212 21.8718 43.9231 18.0048 43.9231 12.7014ZM59.5608 12.7014C59.5608 8.94485 57.2593 6.02385 53.2265 6.02385C49.1936 6.02385 46.8921 8.93794 46.8921 12.7014C46.8921 16.4649 49.1936 19.4135 53.2265 19.4135C57.2593 19.4135 59.5608 16.4649 59.5608 12.7014Z" fill="#CD4327"/>
<path d="M69.1354 0.5064C69.1701 0.257804 69.3092 0.299236 69.4552 0.471872L80.9905 13.3298L92.345 0.471872C92.4841 0.299236 92.6301 0.257804 92.6649 0.5064L94.0833 24.6478H91.2534L90.2243 6.62462L81.0253 17.0933L71.5829 6.65915L70.519 24.6478H67.7239L69.1354 0.5064ZM89.6541 8.24049L90.6067 24.6478H87.8463L87.2831 14.6004L81.1643 21.6301C81.06 21.7337 80.9488 21.7337 80.8445 21.6301L74.4754 14.5659L73.9052 24.6478H71.1448L72.1391 8.20597L81.0183 18.0807L89.6541 8.24049Z" fill="#CD4327"/>
<path d="M97.7612 0.754995H100.661V24.6478H97.7612V0.754995ZM101.3 24.6478V0.754995H104.2V24.6478H101.3Z" fill="#CD4327"/>
<path d="M119.601 24.9655C112.843 24.9655 107.079 19.9038 107.079 12.7014C107.079 5.49903 112.808 0.47187 119.247 0.47187C124.448 0.47187 127.632 2.64708 129.649 5.60261L127.493 7.08038C125.97 4.79468 123.53 2.93711 119.323 2.93711C114.157 2.93711 110.055 7.04585 110.055 12.7083C110.055 18.3708 114.192 22.514 119.608 22.514C123.711 22.514 126.186 20.8982 127.959 17.8736L130.191 19.2823C127.82 23.2529 124.496 24.9724 119.615 24.9724L119.601 24.9655ZM126.965 7.39803L124.809 8.87579C123.891 7.46708 122.403 6.03075 119.358 6.03075C115.819 6.03075 113.663 8.94485 113.663 12.7083C113.663 16.4718 115.895 19.4204 119.573 19.4204C122.688 19.4204 124.204 18.0117 125.233 16.1196L127.424 17.5283C125.797 20.4079 123.425 21.8856 119.608 21.8856C114.546 21.8856 110.694 18.0186 110.694 12.7152C110.694 7.41184 114.518 3.57932 119.33 3.57932C123.259 3.57932 125.56 5.29877 126.972 7.41184L126.965 7.39803Z" fill="#CD4327"/>
<path d="M142.693 0.754995H153.129C157.906 0.754995 160.986 2.93021 160.986 6.93537C160.986 9.92542 159.568 11.3618 158.365 12.0661C159.888 12.7014 162.008 14.1723 162.008 17.7217C162.008 22.079 158.789 24.6409 152.809 24.6409H142.693V0.754995ZM145.488 22.4381H152.809C157.058 22.4381 159.109 20.5736 159.109 17.3073C159.109 14.4278 157.232 12.7774 154.437 12.3561C157.058 11.6863 158.156 9.82875 158.156 7.71568C158.156 4.55299 156.21 2.93712 152.74 2.93712H145.488V22.4381ZM146.121 12.0661V3.56551H152.74C155.785 3.56551 157.517 4.97422 157.517 7.70878C157.517 10.0635 156.029 12.0661 152.281 12.0661H146.127H146.121ZM146.121 21.8028V12.7014H152.768C156.126 12.7014 158.462 14.2137 158.462 17.3073C158.462 20.1524 156.62 21.8028 152.803 21.8028H146.121ZM152.246 10.105C154.019 10.105 154.687 9.29703 154.687 7.96428C154.687 6.63153 154.082 5.78906 152.316 5.78906H148.923V10.1119H152.246V10.105ZM152.775 19.6276C154.861 19.6276 155.57 18.6815 155.57 17.1347C155.57 15.5879 154.826 14.6764 152.775 14.6764H148.923V19.6276H152.775Z" fill="#CD4327"/>
<path d="M164.31 15.4083V0.754995H167.21V15.3738C167.21 20.1179 170.213 22.5071 174.74 22.5071C179.266 22.5071 182.277 20.1179 182.277 15.3738V0.754995H185.177V15.4083C185.177 21.8373 180.754 25 174.74 25C168.725 25 164.303 21.8373 164.303 15.4083H164.31ZM167.849 15.3738V0.754995H170.749V15.3393C170.749 17.9426 172.021 19.4135 174.747 19.4135C177.473 19.4135 178.745 17.9357 178.745 15.3393V0.754995H181.644V15.3738C181.644 19.6966 178.954 21.8718 174.747 21.8718C170.54 21.8718 167.849 19.6966 167.849 15.3738Z" fill="#CD4327"/>
<path d="M191.573 24.6478H188.674V0.754995H198.401C204.52 0.754995 207.92 4.33892 207.92 9.22107C207.92 12.3838 206.397 14.8766 203.533 16.1748L208.518 24.6409H205.368L199.778 14.9042C203.178 14.414 205.014 12.3009 205.014 9.21416C205.014 5.59571 202.608 3.13737 198.255 3.13737H191.566V24.6409L191.573 24.6478ZM192.213 14.3863V3.77958H198.262C202.191 3.77958 204.381 5.95479 204.381 9.22797C204.381 12.5012 202.191 14.3932 198.262 14.3932H192.213V14.3863ZM195.112 24.6478H192.213V15.0216H198.262C198.547 15.0216 198.721 15.0216 199.111 14.9871L204.666 24.6478H201.551L197.303 17.1623H195.112V24.6478ZM198.081 12.2802C200.279 12.2802 201.447 11.1891 201.447 9.22107C201.447 7.25302 200.279 6.16196 198.081 6.16196H195.112V12.2802H198.081Z" fill="#CD4327"/>
<path d="M236.553 0.754995H253.429V3.14428H239.453V22.2931H253.922V24.6478H236.553V0.754995ZM251.697 12.3147H240.093V3.77958H253.429V6.13433H242.992V10.0704H251.697V12.3216V12.3147ZM253.929 21.6647H240.1V12.95H251.704V15.1667H242.999V19.2754H253.929V21.6647Z" fill="#CD4327"/>
<path d="M260.055 24.6478H257.156V0.754995H266.883C273.009 0.754995 276.402 4.33892 276.402 9.22107C276.402 12.3838 274.879 14.8766 272.015 16.1748L277 24.6409H273.85L268.26 14.9042C271.66 14.414 273.496 12.3009 273.496 9.21416C273.496 5.59571 271.09 3.13737 266.737 3.13737H260.048V24.6409L260.055 24.6478ZM260.695 14.3863V3.77958H266.744C270.673 3.77958 272.863 5.95479 272.863 9.22797C272.863 12.5012 270.673 14.3932 266.744 14.3932H260.695V14.3863ZM263.594 24.6478H260.695V15.0216H266.744C267.029 15.0216 267.203 15.0216 267.592 14.9871L273.148 24.6478H270.04L265.792 17.1623H263.601V24.6478H263.594ZM266.57 12.2802C268.768 12.2802 269.929 11.1891 269.929 9.22107C269.929 7.25302 268.761 6.16196 266.57 6.16196H263.601V12.2802H266.57Z" fill="#CD4327"/>
<path d="M222.598 13.4748V11.2582H233.112V21.6578C230.88 23.4877 227.98 24.9586 222.64 24.9586C215.562 24.9586 209.693 19.8969 209.693 12.6945C209.693 5.49213 215.562 0.47187 222.494 0.47187C226.743 0.47187 230.066 2.05322 232.152 4.72562L230.136 6.44508C228.404 4.30439 225.783 2.93021 222.425 2.93021C216.834 2.93021 212.662 7.03895 212.662 12.7014C212.662 18.3639 216.841 22.5762 222.675 22.5762C226.603 22.5762 228.801 21.5542 230.567 20.2905V13.4748H222.605H222.598ZM227.375 16.3199H222.598V14.1032H229.92V20.0074C228.397 21.0639 226.311 21.9409 222.668 21.9409C217.182 21.9409 213.295 18.0048 213.295 12.7014C213.295 7.39803 217.189 3.56551 222.425 3.56551C225.574 3.56551 228.084 4.8292 229.677 6.86631L227.66 8.58576C226.457 7.03895 224.761 6.02385 222.355 6.02385C218.427 6.02385 216.271 8.93794 216.271 12.7014C216.271 16.4649 218.461 19.5861 222.71 19.5861C225.046 19.5861 226.353 19.1304 227.382 18.6401V16.3199H227.375Z" fill="#CD4327"/>
</svg>
